<svg xmlns="http://www.w3.org/2000/svg" viewBox="0 0 128 128" fill="none">
  <defs>
    <linearGradient id="faceGrad" x1="32" y1="12" x2="96" y2="116" gradientUnits="userSpaceOnUse">
      <stop offset="0%" stop-color="#B1A7FF"/>
      <stop offset="50%" stop-color="#6C8CFF"/>
      <stop offset="100%" stop-color="#3941FF"/>
    </linearGradient>
    <linearGradient id="routeGrad1" x1="0" y1="0" x2="1" y2="1">
      <stop offset="0%" stop-color="#6C8CFF"/>
      <stop offset="100%" stop-color="#A78BFA"/>
    </linearGradient>
    <linearGradient id="routeGrad2" x1="1" y1="0" x2="0" y2="1">
      <stop offset="0%" stop-color="#A78BFA"/>
      <stop offset="100%" stop-color="#38BDF8"/>
    </linearGradient>
    <linearGradient id="routeGrad3" x1="0" y1="1" x2="1" y2="0">
      <stop offset="0%" stop-color="#34D399"/>
      <stop offset="100%" stop-color="#6C8CFF"/>
    </linearGradient>
    <linearGradient id="routeGrad4" x1="1" y1="1" x2="0" y2="0">
      <stop offset="0%" stop-color="#F59E0B"/>
      <stop offset="100%" stop-color="#6C8CFF"/>
    </linearGradient>
    <radialGradient id="glow" cx="0.5" cy="0.5" r="0.5">
      <stop offset="0%" stop-color="#6C8CFF" stop-opacity="0.12"/>
      <stop offset="100%" stop-color="#6C8CFF" stop-opacity="0"/>
    </radialGradient>
  </defs>
  <rect x="4" y="4" width="120" height="120" rx="24" fill="#111118" stroke="#252530" stroke-width="1.5"/>
  <circle cx="64" cy="64" r="38" fill="url(#glow)"/>
  <line x1="16" y1="16" x2="42" y2="42" stroke="url(#routeGrad4)" stroke-width="4.5" stroke-linecap="round"/>
  <line x1="112" y1="16" x2="86" y2="42" stroke="url(#routeGrad2)" stroke-width="4.5" stroke-linecap="round"/>
  <line x1="16" y1="112" x2="42" y2="86" stroke="url(#routeGrad1)" stroke-width="4.5" stroke-linecap="round"/>
  <line x1="112" y1="112" x2="86" y2="86" stroke="url(#routeGrad3)" stroke-width="4.5" stroke-linecap="round"/>
  <circle cx="14" cy="14" r="5" fill="#F59E0B"/>
  <circle cx="114" cy="14" r="5" fill="#A78BFA"/>
  <circle cx="14" cy="114" r="5" fill="#6C8CFF"/>
  <circle cx="114" cy="114" r="5" fill="#34D399"/>
  <g transform="translate(31, 23) scale(2.75)">
    <path d="M9.064 3.344a4.578 4.578 0 012.285-.312c1 .115 1.891.54 2.673 1.275.01.01.024.017.037.021a.09.09 0 00.043 0 4.55 4.55 0 013.046.275l.047.022.116.057a4.581 4.581 0 012.188 2.399c.209.51.313 1.041.315 1.595a4.24 4.24 0 01-.134 1.223.123.123 0 00.03.115c.594.607.988 1.33 1.183 2.17.289 1.425-.007 2.71-.887 3.854l-.136.166a4.548 4.548 0 01-2.201 1.388.123.123 0 00-.081.076c-.191.551-.383 1.023-.74 1.494-.9 1.187-2.222 1.846-3.711 1.838-1.187-.006-2.239-.44-3.157-1.302a.107.107 0 00-.105-.024c-.388.125-.78.143-1.204.138a4.441 4.441 0 01-1.945-.466 4.544 4.544 0 01-1.61-1.335c-.152-.202-.303-.392-.414-.617a5.81 5.81 0 01-.37-.961 4.582 4.582 0 01-.014-2.298.124.124 0 00.006-.056.085.085 0 00-.027-.048 4.467 4.467 0 01-1.034-1.651 3.896 3.896 0 01-.251-1.192 5.189 5.189 0 01.141-1.6c.337-1.112.982-1.985 1.933-2.618.212-.141.413-.251.601-.33.215-.089.43-.164.646-.227a.098.098 0 00.065-.066 4.51 4.51 0 01.829-1.615 4.535 4.535 0 011.837-1.388z" fill="url(#faceGrad)" opacity="0.85"/>
    <path d="M12.546 13.909a.637.637 0 000 1.272h3.636a.637.637 0 100-1.272h-3.636z" fill="#fff" opacity="0.9"/>
    <path d="M8.462 9.23a.637.637 0 00-1.106.631l1.272 2.224-1.266 2.136a.636.636 0 101.095.649l1.454-2.455a.636.636 0 00.005-.64L8.462 9.23z" fill="#fff" opacity="0.9"/>
  </g>
  <circle cx="64" cy="64" r="37" fill="none" stroke="#6C8CFF" stroke-width="0.8" opacity="0.2" stroke-dasharray="8 4"/>
</svg>
